<svg width="18" height="15" viewBox="0 0 18 15" fill="none" xmlns="http://www.w3.org/2000/svg">
<path fill-rule="evenodd" clip-rule="evenodd" d="M17.9997 7.5C17.9997 7.91419 17.6639 8.24996 17.2497 8.24996H2.56078L8.03082 13.7191C8.32387 14.0121 8.32387 14.4872 8.03082 14.7803C7.73778 15.0733 7.26267 15.0733 6.96963 14.7803L0.219955 8.0306C0.0791296 7.88993 1.19203e-06 7.69905 1.19203e-06 7.5C1.19203e-06 7.30095 0.0791296 7.11007 0.219955 6.9694L6.96963 0.219731C7.26267 -0.0733111 7.73778 -0.0733111 8.03082 0.219731C8.32387 0.512772 8.32387 0.987887 8.03082 1.28093L2.56078 6.75004H17.2497C17.6639 6.75004 17.9997 7.08581 17.9997 7.5Z" fill="#121217"/>
</svg>
