<svg width="18" height="19" viewBox="0 0 18 19" fill="none" xmlns="http://www.w3.org/2000/svg">
<path fill-rule="evenodd" clip-rule="evenodd" d="M18 8.58109V17.2483C18 18.0767 17.3284 18.7483 16.5 18.7483H12.75C11.9216 18.7483 11.25 18.0767 11.25 17.2483V13.4983C11.25 13.0841 10.9142 12.7483 10.5 12.7483H7.49999C7.08578 12.7483 6.74999 13.0841 6.74999 13.4983V17.2483C6.74999 18.0767 6.07842 18.7483 5.24999 18.7483H1.5C0.671572 18.7483 0 18.0767 0 17.2483V8.58109C-6.38961e-05 8.16137 0.17573 7.76082 0.484687 7.47672L7.98468 0.400478L7.99499 0.390166C8.56718 -0.130208 9.44123 -0.130208 10.0134 0.390166C10.0166 0.393834 10.0201 0.39728 10.0237 0.400478L17.5237 7.47672C17.8296 7.7623 18.0022 8.16265 18 8.58109Z" fill="#121217"/>
</svg>
