<svg width="20" height="20" viewBox="0 0 20 20" fill="none" xmlns="http://www.w3.org/2000/svg">
<path fill-rule="evenodd" clip-rule="evenodd" d="M9.99855 5.41206C7.46553 5.41206 5.41211 7.46548 5.41211 9.99851C5.41211 12.5315 7.46553 14.585 9.99855 14.585C12.5316 14.585 14.585 12.5315 14.585 9.99851C14.5824 7.46658 12.5305 5.4147 9.99855 5.41206ZM9.99855 13.0561C8.30987 13.0561 6.94092 11.6872 6.94092 9.99851C6.94092 8.30982 8.30987 6.94088 9.99855 6.94088C11.6872 6.94088 13.0562 8.30982 13.0562 9.99851C13.0562 11.6872 11.6872 13.0561 9.99855 13.0561ZM18.407 10.2049C18.4109 10.0673 18.4109 9.92971 18.407 9.79212L19.8327 8.01105C19.9842 7.8214 20.0367 7.57102 19.9741 7.33646C19.7404 6.45797 19.3908 5.61449 18.9345 4.82825C18.8133 4.61962 18.6008 4.48042 18.3612 4.45273L16.0947 4.20048C16.0004 4.10111 15.9049 4.00555 15.808 3.91383L15.5405 1.64162C15.5126 1.40179 15.373 1.18924 15.164 1.06832C14.3775 0.612872 13.5341 0.263622 12.6558 0.0296806C12.4211 -0.0327217 12.1707 0.0201247 11.9812 0.172051L10.2049 1.59003C10.0674 1.59003 9.92976 1.59003 9.79216 1.59003L8.01109 0.167274C7.82145 0.01568 7.57107 -0.0368082 7.33651 0.0258584C6.45815 0.259984 5.61473 0.609563 4.82829 1.06545C4.61967 1.18659 4.48047 1.39911 4.45278 1.63876L4.20052 3.90905C4.10115 4.00396 4.0056 4.09951 3.91387 4.1957L1.64167 4.45655C1.40184 4.48446 1.18928 4.62403 1.06837 4.83303C0.612919 5.61957 0.263669 6.46297 0.0297272 7.34124C-0.032675 7.57595 0.0201713 7.82635 0.172098 8.01583L1.59007 9.79212C1.59007 9.92971 1.59007 10.0673 1.59007 10.2049L0.167321 11.986C0.0157266 12.1756 -0.0367615 12.426 0.0259051 12.6606C0.259613 13.539 0.609214 14.3825 1.0655 15.1688C1.18664 15.3774 1.39915 15.5166 1.6388 15.5443L3.90527 15.7965C4.00019 15.8959 4.09574 15.9915 4.19192 16.0832L4.4566 18.3554C4.4845 18.5952 4.62408 18.8078 4.83307 18.9287C5.61961 19.3841 6.46302 19.7334 7.34128 19.9673C7.576 20.0297 7.82639 19.9769 8.01587 19.825L9.79216 18.407C9.92976 18.4108 10.0674 18.4108 10.2049 18.407L11.986 19.8326C12.1757 19.9842 12.426 20.0367 12.6606 19.974C13.5391 19.7403 14.3826 19.3907 15.1688 18.9344C15.3774 18.8133 15.5166 18.6008 15.5443 18.3611L15.7966 16.0947C15.896 16.0004 15.9915 15.9048 16.0832 15.808L18.3554 15.5405C18.5953 15.5126 18.8078 15.373 18.9287 15.164C19.3842 14.3774 19.7334 13.534 19.9674 12.6558C20.0298 12.4211 19.9769 12.1707 19.825 11.9812L18.407 10.2049ZM16.8687 9.58382C16.8849 9.86004 16.8849 10.137 16.8687 10.4132C16.8573 10.6023 16.9165 10.7889 17.0349 10.9368L18.3908 12.6309C18.2352 13.1254 18.036 13.605 17.7955 14.0642L15.6361 14.3088C15.448 14.3297 15.2744 14.4196 15.1487 14.5611C14.9648 14.7679 14.7689 14.9638 14.5621 15.1477C14.4206 15.2734 14.3307 15.447 14.3098 15.6351L14.07 17.7926C13.6109 18.0332 13.1312 18.2324 12.6367 18.3879L10.9416 17.032C10.806 16.9236 10.6375 16.8647 10.4639 16.8648H10.418C10.1418 16.881 9.86486 16.881 9.58864 16.8648C9.39953 16.8534 9.21293 16.9127 9.06502 17.0311L7.36613 18.3879C6.87168 18.2323 6.39204 18.0331 5.93286 17.7926L5.68825 15.636C5.66738 15.448 5.5775 15.2743 5.436 15.1487C5.22914 14.9648 5.03324 14.7689 4.84932 14.562C4.7237 14.4205 4.55006 14.3306 4.36201 14.3098L2.20447 14.069C1.96386 13.6099 1.76465 13.1302 1.60918 12.6357L2.96505 10.9406C3.08344 10.7927 3.14269 10.6061 3.13131 10.417C3.11507 10.1408 3.11507 9.86386 3.13131 9.58764C3.14269 9.39853 3.08344 9.21192 2.96505 9.06402L1.60918 7.36608C1.76476 6.87163 1.96398 6.39199 2.20447 5.93282L4.36105 5.68821C4.54911 5.66733 4.72274 5.57745 4.84836 5.43595C5.03229 5.22909 5.22818 5.03319 5.43504 4.84927C5.5771 4.72357 5.66735 4.54954 5.68825 4.361L5.92809 2.20442C6.38721 1.96381 6.86686 1.7646 7.36135 1.60914L9.05642 2.965C9.20433 3.0834 9.39093 3.14265 9.58004 3.13126C9.85626 3.11502 10.1332 3.11502 10.4094 3.13126C10.5985 3.14265 10.7851 3.0834 10.933 2.965L12.631 1.60914C13.1254 1.76472 13.6051 1.96393 14.0642 2.20442L14.3089 4.361C14.3297 4.54906 14.4196 4.72269 14.5611 4.84831C14.768 5.03224 14.9639 5.22814 15.1478 5.435C15.2734 5.57649 15.447 5.66637 15.6351 5.68725L17.7926 5.92708C18.0332 6.38621 18.2325 6.86586 18.3879 7.36035L17.0321 9.05542C16.9125 9.20457 16.8532 9.39309 16.8658 9.58382H16.8687Z" fill="#666B85"/>
</svg>
