<svg width="20" height="18" viewBox="0 0 20 18" fill="none" xmlns="http://www.w3.org/2000/svg">
<path fill-rule="evenodd" clip-rule="evenodd" d="M17.6923 2.30769H15.0269L13.7163 0.342308C13.5737 0.128578 13.3339 0.0001543 13.0769 0H6.92308C6.66614 0.0001543 6.42625 0.128578 6.28365 0.342308L4.97212 2.30769H2.30769C1.03319 2.30769 0 3.34088 0 4.61538V15.3846C0 16.6591 1.03319 17.6923 2.30769 17.6923H17.6923C18.9668 17.6923 20 16.6591 20 15.3846V4.61538C20 3.34088 18.9668 2.30769 17.6923 2.30769ZM18.4615 15.3846C18.4615 15.8094 18.1171 16.1538 17.6923 16.1538H2.30769C1.88286 16.1538 1.53846 15.8094 1.53846 15.3846V4.61538C1.53846 4.19055 1.88286 3.84615 2.30769 3.84615H5.38462C5.64189 3.84632 5.88221 3.71786 6.025 3.50385L7.33462 1.53846H12.6644L13.975 3.50385C14.1178 3.71786 14.3581 3.84632 14.6154 3.84615H17.6923C18.1171 3.84615 18.4615 4.19055 18.4615 4.61538V15.3846ZM10 5.38462C7.66341 5.38462 5.76923 7.2788 5.76923 9.61538C5.76923 11.952 7.66341 13.8462 10 13.8462C12.3366 13.8462 14.2308 11.952 14.2308 9.61538C14.2281 7.27989 12.3355 5.38727 10 5.38462ZM10 12.3077C8.51308 12.3077 7.30769 11.1023 7.30769 9.61538C7.30769 8.12846 8.51308 6.92308 10 6.92308C11.4869 6.92308 12.6923 8.12846 12.6923 9.61538C12.6923 11.1023 11.4869 12.3077 10 12.3077Z" fill="#666B85"/>
</svg>
